<?xml version="1.0" encoding="utf-8"?>
<!-- Generator: Adobe Illustrator 23.0.5, SVG Export Plug-In . SVG Version: 6.00 Build 0)  -->
<svg version="1.1" id="Слой_1" xmlns="http://www.w3.org/2000/svg" xmlns:xlink="http://www.w3.org/1999/xlink" x="0px" y="0px"
	 viewBox="0 0 395 60" style="enable-background:new 0 0 395 60;" xml:space="preserve">
<style type="text/css">
	.st0{fill:#D36184;}
</style>
<g>
	<path class="st0" d="M0.4,1.6h13.2v46.1h28.5v10.7H0.4V1.6z"/>
	<path class="st0" d="M87.4,46.3H61l-5,12.2H42.5L67.8,1.6h13l25.4,56.9H92.4L87.4,46.3z M83.2,36.3l-9-21.8l-9,21.8H83.2z"/>
	<path class="st0" d="M189.8,1.6l-24.6,56.9h-13L127.7,1.6h14.2l17.3,40.6l17.5-40.6L189.8,1.6L189.8,1.6z"/>
	<path class="st0" d="M194.5,1.6h13.2v56.9h-13.2V1.6z"/>
	<path class="st0" d="M226.8,57.6c-4.2-1.2-7.6-2.8-10.1-4.8l4.5-9.9c2.4,1.8,5.3,3.2,8.7,4.3c3.4,1.1,6.7,1.6,10.1,1.6
		c3.7,0,6.5-0.5,8.3-1.7c1.8-1.1,2.7-2.6,2.7-4.4c0-1.4-0.5-2.5-1.6-3.4c-1.1-0.9-2.4-1.6-4.1-2.1s-3.9-1.1-6.7-1.8
		c-4.3-1-7.9-2.1-10.6-3.1s-5.1-2.7-7.1-5c-2-2.3-3-5.3-3-9.1c0-3.3,0.9-6.3,2.7-9s4.5-4.8,8.1-6.4c3.6-1.6,8-2.4,13.2-2.4
		c3.6,0,7.2,0.4,10.6,1.3c3.5,0.9,6.5,2.1,9.1,3.7l-4.1,10c-5.3-3-10.5-4.5-15.8-4.5c-3.7,0-6.4,0.6-8.2,1.8s-2.6,2.8-2.6,4.7
		s1,3.4,3,4.4s5.1,1.9,9.3,2.8c4.3,1,7.9,2.1,10.6,3.1c2.8,1,5.1,2.6,7.1,4.9c2,2.2,3,5.2,3,9c0,3.3-0.9,6.2-2.7,8.9
		c-1.8,2.7-4.5,4.8-8.2,6.4c-3.6,1.6-8,2.4-13.2,2.4C235.4,59.4,231,58.8,226.8,57.6z"/>
	<path class="st0" d="M284,12.3h-18.2V1.6h49.6v10.7h-18.2v46.1H284L284,12.3L284,12.3z"/>
	<path class="st0" d="M357,46.3h-26.4l-5,12.2h-13.5l25.4-56.9h13l25.4,56.9h-13.8L357,46.3z M352.9,36.3l-9-21.8l-9,21.8H352.9z"/>
	<path class="st0" d="M381.3,56.9c-1.5-1.4-2.2-3.2-2.2-5.2s0.7-3.8,2.2-5.2s3.3-2.1,5.6-2.1s4.1,0.7,5.6,2.1
		c1.5,1.4,2.2,3.1,2.2,5.2s-0.8,3.8-2.2,5.2c-1.5,1.4-3.3,2.1-5.6,2.1S382.8,58.4,381.3,56.9z M379.3,1.6h15.1l-2.5,37.1h-10.1
		L379.3,1.6z"/>
</g>
</svg>
