<?xml version="1.0" encoding="utf-8"?>
<!-- Generator: Adobe Illustrator 23.0.5, SVG Export Plug-In . SVG Version: 6.00 Build 0)  -->
<svg version="1.1" id="Слой_1" xmlns="http://www.w3.org/2000/svg" xmlns:xlink="http://www.w3.org/1999/xlink" x="0px" y="0px"
	 viewBox="0 0 310 70" style="enable-background:new 0 0 310 70;" xml:space="preserve">
<style type="text/css">
	.st0{fill:#D36184;}
</style>
<g>
	<path class="st0" d="M13.4,15.4c1.5,1.4,2.2,3.2,2.2,5.2c0,2.1-0.7,3.8-2.2,5.2S10.1,28,7.8,28c-2.3,0-4.1-0.7-5.6-2.1
		C0.7,24.5,0,22.8,0,20.7c0-2.1,0.7-3.8,2.2-5.2c1.5-1.4,3.3-2.1,5.6-2.1C10,13.3,11.9,14,13.4,15.4z M15.4,70H0.3l2.5-36.4h10.1
		L15.4,70z"/>
	<path class="st0" d="M78.6,0.8v56.7H65.4V34.3H39.5v23.3H26.3V0.8h13.2v22.4h25.9V0.8H78.6z"/>
	<path class="st0" d="M129.6,45.4h-26.5l-5,12.2H84.6L110,0.8h13l25.5,56.7h-13.8L129.6,45.4z M125.4,35.4l-9-21.7l-9,21.7H125.4z"
		/>
	<path class="st0" d="M160.1,56.7c-4.2-1.2-7.6-2.8-10.1-4.7l4.5-9.9c2.4,1.8,5.3,3.2,8.7,4.3c3.4,1.1,6.7,1.6,10.1,1.6
		c3.7,0,6.5-0.5,8.3-1.7c1.8-1.1,2.7-2.6,2.7-4.4c0-1.3-0.5-2.5-1.6-3.4c-1.1-0.9-2.4-1.6-4.1-2.1c-1.7-0.5-3.9-1.1-6.7-1.8
		c-4.3-1-7.9-2.1-10.7-3.1c-2.8-1-5.1-2.7-7.1-4.9c-2-2.3-3-5.3-3-9.1c0-3.3,0.9-6.3,2.7-9s4.5-4.8,8.1-6.4c3.6-1.6,8-2.4,13.2-2.4
		c3.6,0,7.2,0.4,10.7,1.3c3.5,0.9,6.5,2.1,9.1,3.7l-4.1,10c-5.3-3-10.5-4.5-15.8-4.5c-3.7,0-6.4,0.6-8.2,1.8
		c-1.8,1.2-2.6,2.8-2.6,4.7s1,3.4,3.1,4.3c2,0.9,5.1,1.9,9.3,2.8c4.3,1,7.9,2.1,10.7,3.1c2.8,1,5.1,2.6,7.1,4.9c2,2.2,3,5.2,3,9
		c0,3.2-0.9,6.2-2.7,8.9c-1.8,2.7-4.5,4.8-8.2,6.4c-3.6,1.6-8.1,2.4-13.3,2.4C168.6,58.5,164.3,57.9,160.1,56.7z"/>
	<path class="st0" d="M217.3,11.5h-18.2V0.8h49.7v10.7h-18.2v46h-13.2V11.5z"/>
	<path class="st0" d="M290.5,45.4h-26.5l-5,12.2h-13.5l25.4-56.7h13l25.5,56.7h-13.8L290.5,45.4z M286.4,35.4l-9-21.7l-9,21.7H286.4
		z"/>
</g>
</svg>
