<svg xmlns="http://www.w3.org/2000/svg" viewBox="0 0 41.87 40.21"><title>Ресурс 4</title><g id="Слой_2" data-name="Слой 2"><g id="Слой_1-2" data-name="Слой 1"><path d="M6.06,5.89A20.54,20.54,0,0,1,20.94,0,20.51,20.51,0,0,1,35.81,5.89a19.09,19.09,0,0,1,6.06,14.2A19.11,19.11,0,0,1,35.81,34.3a20.49,20.49,0,0,1-14.87,5.91A20.51,20.51,0,0,1,6.06,34.3,19.11,19.11,0,0,1,0,20.09,19.09,19.09,0,0,1,6.06,5.89Zm6.1,23.21a11.85,11.85,0,0,0,8.78,3.66,11.85,11.85,0,0,0,8.78-3.66,12.34,12.34,0,0,0,3.6-9,12.38,12.38,0,0,0-3.6-9,11.86,11.86,0,0,0-8.78-3.67,11.86,11.86,0,0,0-8.78,3.67,12.35,12.35,0,0,0-3.61,9A12.31,12.31,0,0,0,12.16,29.1Z"/></g></g></svg>